<?xml version="1.0" encoding="UTF-8"?>
<!-- This file is generated by npm run build:icons -->
<svg xmlns="http://www.w3.org/2000/svg" xmlns:xlink="http://www.w3.org/1999/xlink" width="0" height="0">
<defs>
<symbol id="add-selected" viewBox="0 0 24 24" data-name="Layer 1"><path d="m12 0a12 12 0 1 0 12 12 12.013 12.013 0 0 0 -12-12zm5 13h-4v4h-2v-4h-4v-2h4v-4h2v4h4z"></path></symbol>
<symbol id="add" viewBox="0 0 24 24" data-name="Layer 1"><path d="m12 0a12 12 0 1 0 12 12 12.013 12.013 0 0 0 -12-12zm0 22a10 10 0 1 1 10-10 10.011 10.011 0 0 1 -10 10zm5-10a1 1 0 0 1 -1 1h-3v3a1 1 0 0 1 -2 0v-3h-3a1 1 0 0 1 0-2h3v-3a1 1 0 0 1 2 0v3h3a1 1 0 0 1 1 1z"></path></symbol>
<symbol id="bands-selected" data-name="Layer 1" viewBox="0 0 24 24"><path d="M12,16a4,4,0,1,1,4-4A4,4,0,0,1,12,16ZM5.683,16H1a1,1,0,0,1-1-1A6.022,6.022,0,0,1,5.131,9.084a1,1,0,0,1,1.1,1.266A6.009,6.009,0,0,0,6,12a5.937,5.937,0,0,0,.586,2.57,1,1,0,0,1-.9,1.43ZM17,24H7a1,1,0,0,1-1-1,6,6,0,0,1,12,0A1,1,0,0,1,17,24ZM18,8a4,4,0,1,1,4-4A4,4,0,0,1,18,8ZM6,8a4,4,0,1,1,4-4A4,4,0,0,1,6,8Zm17,8H18.317a1,1,0,0,1-.9-1.43A5.937,5.937,0,0,0,18,12a6.009,6.009,0,0,0-.236-1.65,1,1,0,0,1,1.105-1.266A6.022,6.022,0,0,1,24,15,1,1,0,0,1,23,16Z"></path></symbol>
<symbol id="bands" data-name="Layer 1" viewBox="0 0 24 24"><path d="M12,16a4,4,0,1,1,4-4A4,4,0,0,1,12,16Zm0-6a2,2,0,1,0,2,2A2,2,0,0,0,12,10Zm6,13A6,6,0,0,0,6,23a1,1,0,0,0,2,0,4,4,0,0,1,8,0,1,1,0,0,0,2,0ZM18,8a4,4,0,1,1,4-4A4,4,0,0,1,18,8Zm0-6a2,2,0,1,0,2,2A2,2,0,0,0,18,2Zm6,13a6.006,6.006,0,0,0-6-6,1,1,0,0,0,0,2,4,4,0,0,1,4,4,1,1,0,0,0,2,0ZM6,8a4,4,0,1,1,4-4A4,4,0,0,1,6,8ZM6,2A2,2,0,1,0,8,4,2,2,0,0,0,6,2ZM2,15a4,4,0,0,1,4-4A1,1,0,0,0,6,9a6.006,6.006,0,0,0-6,6,1,1,0,0,0,2,0Z"></path></symbol>
<symbol id="home-selected" x="0px" y="0px" viewBox="0 0 512 512" style="enable-background:new 0 0 512 512;" xml:space="preserve">
<g>
	<path d="M256,319.841c-35.346,0-64,28.654-64,64v128h128v-128C320,348.495,291.346,319.841,256,319.841z"></path>
	<g>
		<path d="M362.667,383.841v128H448c35.346,0,64-28.654,64-64V253.26c0.005-11.083-4.302-21.733-12.011-29.696l-181.29-195.99    c-31.988-34.61-85.976-36.735-120.586-4.747c-1.644,1.52-3.228,3.103-4.747,4.747L12.395,223.5    C4.453,231.496-0.003,242.31,0,253.58v194.261c0,35.346,28.654,64,64,64h85.333v-128c0.399-58.172,47.366-105.676,104.073-107.044    C312.01,275.383,362.22,323.696,362.667,383.841z"></path>
		<path d="M256,319.841c-35.346,0-64,28.654-64,64v128h128v-128C320,348.495,291.346,319.841,256,319.841z"></path>
	</g>
</g>















</symbol>
<symbol id="home" viewBox="0 0 24 24"><path d="M23.121,9.069,15.536,1.483a5.008,5.008,0,0,0-7.072,0L.879,9.069A2.978,2.978,0,0,0,0,11.19v9.817a3,3,0,0,0,3,3H21a3,3,0,0,0,3-3V11.19A2.978,2.978,0,0,0,23.121,9.069ZM15,22.007H9V18.073a3,3,0,0,1,6,0Zm7-1a1,1,0,0,1-1,1H17V18.073a5,5,0,0,0-10,0v3.934H3a1,1,0,0,1-1-1V11.19a1.008,1.008,0,0,1,.293-.707L9.878,2.9a3.008,3.008,0,0,1,4.244,0l7.585,7.586A1.008,1.008,0,0,1,22,11.19Z"></path></symbol>
<symbol id="remove-selected" x="0px" y="0px" viewBox="0 0 512 512" style="enable-background:new 0 0 512 512;" xml:space="preserve">
<g>
	<path d="M256,0C114.615,0,0,114.615,0,256s114.615,256,256,256s256-114.615,256-256C511.847,114.678,397.322,0.153,256,0z    M341.333,311.189c8.669,7.979,9.229,21.475,1.25,30.144c-7.979,8.669-21.475,9.229-30.144,1.25c-0.434-0.399-0.85-0.816-1.25-1.25   L256,286.165l-55.168,55.168c-8.475,8.185-21.98,7.95-30.165-0.525c-7.984-8.267-7.984-21.373,0-29.64L225.835,256l-55.168-55.168   c-8.185-8.475-7.95-21.98,0.525-30.165c8.267-7.984,21.373-7.984,29.64,0L256,225.835l55.189-55.168   c7.979-8.669,21.475-9.229,30.144-1.25c8.669,7.979,9.229,21.475,1.25,30.144c-0.399,0.434-0.816,0.85-1.25,1.25L286.165,256   L341.333,311.189z"></path>
</g>















</symbol>
<symbol id="remove" viewBox="0 0 24 24"><path d="M16,8a1,1,0,0,0-1.414,0L12,10.586,9.414,8A1,1,0,0,0,8,9.414L10.586,12,8,14.586A1,1,0,0,0,9.414,16L12,13.414,14.586,16A1,1,0,0,0,16,14.586L13.414,12,16,9.414A1,1,0,0,0,16,8Z"></path><path d="M12,0A12,12,0,1,0,24,12,12.013,12.013,0,0,0,12,0Zm0,22A10,10,0,1,1,22,12,10.011,10.011,0,0,1,12,22Z"></path></symbol>
<symbol id="smile" data-name="Layer 1" viewBox="0 0 24 24"><path d="M12,24A12,12,0,1,1,24,12,12.013,12.013,0,0,1,12,24ZM12,2A10,10,0,1,0,22,12,10.011,10.011,0,0,0,12,2Zm5.666,13.746a1,1,0,0,0-1.33-1.494A7.508,7.508,0,0,1,12,16a7.509,7.509,0,0,1-4.334-1.746,1,1,0,0,0-1.332,1.492A9.454,9.454,0,0,0,12,18,9.454,9.454,0,0,0,17.666,15.746ZM6,10c0,1,.895,1,2,1s2,0,2-1a2,2,0,0,0-4,0Zm8,0c0,1,.895,1,2,1s2,0,2-1a2,2,0,0,0-4,0Z"></path></symbol>
<symbol id="songs-selected" viewBox="0 0 24 24" data-name="Layer 1"><path d="m22.554.923a3.978 3.978 0 0 0 -3.291-.853l-9.184 1.722a5 5 0 0 0 -4.079 4.914v9.85a3.959 3.959 0 0 0 -2-.556 4 4 0 1 0 4 4v-9.124a2 2 0 0 1 1.632-1.966l11.183-2.1a1 1 0 0 1 1.185.99v5.76a3.959 3.959 0 0 0 -2-.56 4 4 0 1 0 4 4v-13a3.987 3.987 0 0 0 -1.446-3.077z"></path></symbol>
<symbol id="songs" data-name="Layer 1" viewBox="0 0 24 24"><path d="M22.554.923A3.978,3.978,0,0,0,19.263.07L10.079,1.792A5,5,0,0,0,6,6.706v9.85A3.959,3.959,0,0,0,4,16a4,4,0,1,0,4,4V10.876A2,2,0,0,1,9.632,8.91l11.183-2.1A1,1,0,0,1,22,7.8v5.76A3.959,3.959,0,0,0,20,13a4,4,0,1,0,4,4V4A3.987,3.987,0,0,0,22.554.923ZM4,22a2,2,0,1,1,2-2A2,2,0,0,1,4,22ZM20.447,4.848,9.263,6.944A4,4,0,0,0,8,7.416v-.71a3,3,0,0,1,2.447-2.949l9.185-1.722A2,2,0,0,1,22,4v.984A2.955,2.955,0,0,0,20.447,4.848ZM20,19a2,2,0,1,1,2-2A2,2,0,0,1,20,19Z"></path></symbol>
<symbol id="students-selected" viewBox="0 0 24 24" data-name="Layer 1"><path d="m24 8.48v11.52a1 1 0 0 1 -2 0v-8.248l-7.4 3.536a5 5 0 0 1 -2.577.694 5.272 5.272 0 0 1 -2.7-.739l-7.38-3.513a3.691 3.691 0 0 1 -.084-6.455c.027-.016.056-.031.084-.045l7.457-3.558a5.226 5.226 0 0 1 5.282.045l7.375 3.513a3.767 3.767 0 0 1 1.943 3.25zm-11.978 9.5a7.26 7.26 0 0 1 -3.645-.972l-4.377-2.089v2.7a5.007 5.007 0 0 0 3.519 4.778 15.557 15.557 0 0 0 4.481.603 15.557 15.557 0 0 0 4.481-.607 5.007 5.007 0 0 0 3.519-4.778v-2.691l-4.459 2.13a6.983 6.983 0 0 1 -3.519.928z"></path></symbol>
<symbol id="students" x="0px" y="0px" viewBox="0 0 512 512" style="enable-background:new 0 0 512 512;" xml:space="preserve">
<path d="M470.549,111.573L313.237,36.629c-34.628-20.684-77.728-21.051-112.704-0.96L41.451,111.573  c-0.597,0.299-1.216,0.619-1.792,0.96c-37.752,21.586-50.858,69.689-29.272,107.441c7.317,12.798,18.08,23.284,31.064,30.266  l43.883,20.907V375.68c0.026,46.743,30.441,88.039,75.072,101.931c31.059,8.985,63.264,13.384,95.595,13.056  c32.326,0.362,64.531-4,95.595-12.949c44.631-13.891,75.046-55.188,75.072-101.931V271.104l42.667-20.395v175.957  c0,11.782,9.551,21.333,21.333,21.333c11.782,0,21.333-9.551,21.333-21.333v-256C512.143,145.615,492.363,122.473,470.549,111.573z   M384,375.787c0.011,27.959-18.129,52.69-44.8,61.077c-27.046,7.728-55.073,11.479-83.2,11.136  c-28.127,0.343-56.154-3.408-83.2-11.136c-26.671-8.388-44.811-33.118-44.8-61.077v-84.309l70.763,33.707  c17.46,10.368,37.401,15.816,57.707,15.765c19.328,0.137,38.331-4.98,54.976-14.805L384,291.477V375.787z M452.267,211.733  l-160.896,76.8c-22.434,13.063-50.241,12.693-72.32-0.96l-157.419-74.88c-17.547-9.462-24.101-31.357-14.639-48.903  c3.2-5.934,7.998-10.853,13.85-14.201l159.893-76.373c22.441-13.034,50.233-12.665,72.32,0.96l157.312,74.944  c11.569,6.424,18.807,18.555,18.965,31.787C469.354,193.441,462.9,205.097,452.267,211.733L452.267,211.733z"></path>
</symbol>
<symbol id="teachers-selected" x="0px" y="0px" viewBox="0 0 512 512" style="enable-background:new 0 0 512 512;" xml:space="preserve">
<g>
	<circle cx="256" cy="128" r="128"></circle>
	<path d="M256,298.667c-105.99,0.118-191.882,86.01-192,192C64,502.449,73.551,512,85.333,512h341.333   c11.782,0,21.333-9.551,21.333-21.333C447.882,384.677,361.99,298.784,256,298.667z"></path>
</g>















</symbol>
<symbol id="teachers" viewBox="0 0 24 24"><path d="M12,12A6,6,0,1,0,6,6,6.006,6.006,0,0,0,12,12ZM12,2A4,4,0,1,1,8,6,4,4,0,0,1,12,2Z"></path><path d="M12,14a9.01,9.01,0,0,0-9,9,1,1,0,0,0,2,0,7,7,0,0,1,14,0,1,1,0,0,0,2,0A9.01,9.01,0,0,0,12,14Z"></path></symbol>
</defs>
</svg>
